{
  "extensionsUsed": [
    "KHR_lights_punctual"
  ],
  "accessors": [
    {
      "bufferView": 0,
      "componentType": 5126,
      "count": 4,
      "type": "VEC3",
      "max": [
        25.0,
        13.508899688720703,
        0.0
      ],
      "min": [
        -25.0,
        -13.508899688720703,
        0.0
      ]
    },
    {
      "bufferView": 1,
      "componentType": 5126,
      "count": 4,
      "type": "VEC3",
      "max": [
        0.0,
        0.0,
        -1.0
      ],
      "min": [
        0.0,
        0.0,
        -1.0
      ]
    },
    {
      "bufferView": 2,
      "componentType": 5126,
      "count": 4,
      "type": "VEC2",
      "max": [
        1.0,
        1.0
      ],
      "min": [
        0.0,
        0.45964401960372925
      ]
    },
    {
      "bufferView": 3,
      "componentType": 5121,
      "count": 6,
      "type": "SCALAR",
      "max": [
        3.0
      ],
      "min": [
        0.0
      ]
    },
    {
      "bufferView": 4,
      "componentType": 5126,
      "count": 16384,
      "type": "VEC3",
      "max": [
        0.0,
        0.0,
        1.0
      ],
      "min": [
        -1.5,
        0.0,
        0.0
      ]
    },
    {
      "bufferView": 5,
      "componentType": 5126,
      "count": 16384,
      "type": "VEC3",
      "max": [
        0.0,
        1.0,
        0.0
      ],
      "min": [
        0.0,
        0.99999994039535522,
        0.0
      ]
    },
    {
      "bufferView": 6,
      "componentType": 5126,
      "count": 16384,
      "type": "VEC4",
      "max": [
        -1.0,
        1.0,
        1.0,
        1.0
      ],
      "min": [
        -1.0,
        1.0,
        1.0,
        1.0
      ]
    },
    {
      "bufferView": 7,
      "componentType": 5126,
      "count": 16384,
      "type": "VEC2",
      "max": [
        1.0,
        1.0
      ],
      "min": [
        0.0,
        0.0
      ]
    },
    {
      "bufferView": 8,
      "componentType": 5123,
      "count": 96774,
      "type": "SCALAR",
      "max": [
        16383.0
      ],
      "min": [
        0.0
      ]
    }
  ],
  "asset": {
    "version": "2.0"
  },
  "buffers": [
    {
      "uri": "scene.bin",
      "byteLength": 980114
    }
  ],
  "bufferViews": [
    {
      "buffer": 0,
      "byteLength": 48
    },
    {
      "buffer": 0,
      "byteOffset": 48,
      "byteLength": 48
    },
    {
      "buffer": 0,
      "byteOffset": 96,
      "byteLength": 32
    },
    {
      "buffer": 0,
      "byteOffset": 128,
      "byteLength": 6
    },
    {
      "buffer": 0,
      "byteOffset": 134,
      "byteLength": 196608
    },
    {
      "buffer": 0,
      "byteOffset": 196742,
      "byteLength": 196608
    },
    {
      "buffer": 0,
      "byteOffset": 393350,
      "byteLength": 262144
    },
    {
      "buffer": 0,
      "byteOffset": 655494,
      "byteLength": 131072
    },
    {
      "buffer": 0,
      "byteOffset": 786566,
      "byteLength": 193548
    }
  ],
  "cameras": [
    {
      "perspective": {
        "aspectRatio": 1.8337874412536621,
        "yfov": 1.0471975803375244,
        "zfar": 998.65380859375,
        "znear": 0.0099999997764825821
      },
      "type": "perspective",
      "name": "Main Camera"
    }
  ],
  "images": [
    {
      "uri": "371857150Canv_MainMain.png",
      "name": "Canv_Main"
    },
    {
      "uri": "371857150New_Terrain_4Main.png",
      "name": "New_Terrain_4"
    }
  ],
  "materials": [
    {
      "pbrMetallicRoughness": {
        "baseColorTexture": {
          "index": 0
        },
        "metallicFactor": 0.0
      },
      "alphaMode": "BLEND",
      "doubleSided": true,
      "name": "Hidden/Cognitive/Canvas Export Shader"
    },
    {
      "pbrMetallicRoughness": {
        "baseColorTexture": {
          "index": 1
        },
        "metallicFactor": 0.0
      },
      "name": "Standard"
    }
  ],
  "meshes": [
    {
      "primitives": [
        {
          "attributes": {
            "POSITION": 0,
            "NORMAL": 1,
            "TEXCOORD_0": 2
          },
          "indices": 3,
          "material": 0
        }
      ],
      "name": "Canv_Main"
    },
    {
      "primitives": [
        {
          "attributes": {
            "POSITION": 4,
            "NORMAL": 5,
            "TANGENT": 6,
            "TEXCOORD_0": 7
          },
          "indices": 8,
          "material": 1
        }
      ],
      "name": "Terrain"
    }
  ],
  "nodes": [
    {
      "rotation": [
        0.109381631,
        0.8754261,
        0.408217877,
        -0.234569684
      ],
      "translation": [
        0.0,
        3.0,
        0.0
      ],
      "extensions": {
        "KHR_lights_punctual": {
          "light": 0
        }
      },
      "name": "Directional Light"
    },
    {
      "name": "Cognitive3D_Manager"
    },
    {
      "children": [
        3,
        27,
        28
      ],
      "translation": [
        -0.75,
        1.468,
        0.78
      ],
      "name": "Registration Menu"
    },
    {
      "children": [
        4,
        5,
        24,
        26
      ],
      "scale": [
        0.02,
        0.0199999977,
        1.0
      ],
      "translation": [
        0.0,
        0.1202,
        1.0
      ],
      "name": "Canv_Main"
    },
    {
      "translation": [
        5.03000069,
        11.0089,
        0.0
      ],
      "name": "Version"
    },
    {
      "children": [
        6,
        21,
        22,
        23
      ],
      "translation": [
        2.25,
        1.3,
        0.0
      ],
      "name": "MAIN"
    },
    {
      "children": [
        7,
        13,
        19
      ],
      "translation": [
        0.0,
        -2.91,
        0.0
      ],
      "name": "VerticalLayout"
    },
    {
      "children": [
        8,
        12
      ],
      "translation": [
        0.0,
        5.91,
        0.0
      ],
      "name": "Email"
    },
    {
      "children": [
        9
      ],
      "scale": [
        0.17,
        0.17,
        1.0
      ],
      "translation": [
        -6.28,
        0.0,
        0.0
      ],
      "name": "InputField (TMP)"
    },
    {
      "children": [
        10,
        11
      ],
      "translation": [
        0.0,
        -0.5,
        0.0
      ],
      "name": "Text Area"
    },
    {
      "name": "Placeholder"
    },
    {
      "name": "Text"
    },
    {
      "translation": [
        -7.97500038,
        0.0,
        0.0
      ],
      "name": "Label"
    },
    {
      "children": [
        14,
        18
      ],
      "translation": [
        0.0,
        -0.09000015,
        0.0
      ],
      "name": "Password"
    },
    {
      "children": [
        15
      ],
      "scale": [
        0.17,
        0.17,
        1.0
      ],
      "translation": [
        -6.28,
        0.0,
        0.0
      ],
      "name": "InputField (TMP)"
    },
    {
      "children": [
        16,
        17
      ],
      "translation": [
        0.0,
        -0.5,
        0.0
      ],
      "name": "Text Area"
    },
    {
      "name": "Placeholder"
    },
    {
      "name": "Text"
    },
    {
      "translation": [
        -7.97500038,
        0.0,
        0.0
      ],
      "name": "Label"
    },
    {
      "children": [
        20
      ],
      "translation": [
        0.0,
        -6.09,
        0.0
      ],
      "name": "Login"
    },
    {
      "translation": [
        -7.97500038,
        0.0,
        0.0
      ],
      "name": "Text"
    },
    {
      "rotation": [
        0.0,
        0.0,
        -1.16415322E-10,
        1.0
      ],
      "scale": [
        0.099999994,
        0.099999994,
        0.09999999
      ],
      "translation": [
        18.78,
        -10.69,
        2.00234331E-06
      ],
      "name": "Corner"
    },
    {
      "rotation": [
        0.0,
        0.0,
        -1.16415322E-10,
        1.0
      ],
      "scale": [
        0.099999994,
        0.099999994,
        0.09999999
      ],
      "translation": [
        6.730002,
        -13.23,
        -2.16532476E-06
      ],
      "name": "Corner"
    },
    {
      "rotation": [
        -1.02445474E-08,
        -7.45057971E-09,
        -0.7071065,
        -0.707107246
      ],
      "scale": [
        0.100000039,
        0.1,
        0.09999999
      ],
      "translation": [
        21.2,
        -0.67,
        -1.87428657E-06
      ],
      "name": "Corner"
    },
    {
      "children": [
        25
      ],
      "translation": [
        -22.95,
        11.6,
        0.0
      ],
      "name": "Button"
    },
    {
      "translation": [
        0.0,
        -3.19999981,
        0.0
      ],
      "name": "Text (TMP)"
    },
    {
      "mesh": 0,
      "name": "Canv_Main"
    },
    {
      "name": "EventSystem"
    },
    {
      "children": [
        29
      ],
      "name": "Sounds"
    },
    {
      "name": "Hover"
    },
    {
      "translation": [
        -0.75,
        0.0,
        2.0
      ],
      "name": "Lesson Anchor"
    },
    {
      "children": [
        32,
        33,
        34
      ],
      "translation": [
        -0.75,
        0.979,
        3.726
      ],
      "name": "Anchors"
    },
    {
      "translation": [
        -0.73,
        0.73,
        0.0
      ],
      "name": "PreviewAnchor"
    },
    {
      "translation": [
        0.73,
        0.73,
        0.0
      ],
      "name": "FullCardAnchor"
    },
    {
      "name": "OtherComponentsMenu"
    },
    {
      "translation": [
        2.27653813,
        -1.42088556,
        -2.127112
      ],
      "name": "XR Interaction Manager"
    },
    {
      "children": [
        37
      ],
      "translation": [
        -0.75,
        0.5,
        0.5
      ],
      "name": "XR Origin"
    },
    {
      "children": [
        38
      ],
      "translation": [
        0.0,
        1.1176,
        0.0
      ],
      "name": "Camera Offset"
    },
    {
      "camera": 0,
      "name": "Main Camera"
    },
    {
      "translation": [
        -8.81894,
        0.246772051,
        9.227211
      ],
      "name": "EventSystem"
    },
    {
      "children": [
        41
      ],
      "name": "Terrain"
    },
    {
      "mesh": 1,
      "name": "Terrain"
    }
  ],
  "samplers": [
    {}
  ],
  "scene": 0,
  "scenes": [
    {
      "nodes": [
        0,
        1,
        2,
        30,
        31,
        35,
        36,
        39,
        40
      ],
      "name": "scene"
    }
  ],
  "textures": [
    {
      "sampler": 0,
      "source": 0,
      "name": "371857150Canv_MainMain"
    },
    {
      "sampler": 0,
      "source": 1,
      "name": "371857150New_Terrain_4Main"
    }
  ],
  "extensions": {
    "KHR_lights_punctual": {
      "lights": [
        {
          "type": "directional",
          "intensity": 2.0,
          "color": [
            1.0,
            1.0,
            1.0
          ],
          "name": "Directional Light"
        }
      ]
    }
  }
}